<svg width="158" height="47" viewBox="0 0 158 47" fill="none" xmlns="http://www.w3.org/2000/svg">
<g id="Layer_1" clip-path="url(#clip0_2718_11380)">
<path id="Vector" d="M0 36.5588L14.768 0.734375H20.9644L35.7841 36.5588H29.3812L25.715 27.7051H10.0691L6.40293 36.5588H0ZM12.2895 22.2802H23.4946L17.9179 8.66693L12.2895 22.2802Z" fill="black"/>
<path id="Vector_2" d="M37.7437 36.5602V9.43597H42.6491L43.372 14.7585C45.1277 11.0737 48.3291 9.12891 52.8732 9.12891H53.9059V15.0143H52.8732C47.1931 15.0143 43.8368 18.0338 43.8368 23.1516V36.5602H37.7437Z" fill="black"/>
<path id="Vector_3" d="M53.9033 22.7934C53.9033 13.8885 59.9448 8.61719 67.8968 8.61719C75.3841 8.61719 80.4445 13.172 80.9609 19.9275H74.971C74.403 16.1915 71.7179 13.7861 67.8452 13.7861C63.1979 13.7861 60.0997 17.2662 60.0997 22.7934C60.0997 28.7301 63.5077 32.159 68.0517 32.159C71.7696 32.159 74.3514 29.8048 74.971 25.9153H80.9609C80.2379 32.9266 75.3325 37.3279 68.0517 37.3279C59.1186 37.3279 53.9033 30.9819 53.9033 22.7934Z" fill="black"/>
<path id="Vector_4" d="M94.2315 36.5593C88.2933 36.5593 85.0918 33.6421 85.0918 28.2685V0.171875H91.1849V9.43505H98.2591V14.5528H91.1849V27.8591C91.1849 30.1621 92.3725 31.4415 94.6446 31.4415H97.7427V36.5593H94.2315Z" fill="black"/>
<path id="Vector_5" d="M99.6509 22.7423C99.6509 13.8885 105.692 8.61719 113.696 8.61719C122.526 8.61719 127.69 14.7585 127.69 22.7423C127.69 31.9031 121.855 37.3279 113.696 37.3279C104.815 37.3279 99.6509 31.1354 99.6509 22.7423ZM121.493 22.7423C121.493 17.3686 118.447 13.7861 113.696 13.7861C108.945 13.7861 105.847 17.3686 105.847 22.7423C105.847 28.6789 109.204 32.159 113.696 32.159C118.601 32.159 121.493 28.1671 121.493 22.7423Z" fill="black"/>
<path id="Vector_6" d="M130.426 46.7958V9.43603H135.332L135.951 13.8885C137.759 10.7155 141.322 8.61719 145.659 8.61719C152.888 8.61719 158 14.4515 158 22.8446C158 31.2378 152.888 37.3279 145.607 37.3279C141.683 37.3279 138.43 35.5879 136.571 32.7731V46.7958H130.426ZM151.752 22.8446C151.752 17.4709 148.706 13.735 144.213 13.735C139.721 13.735 136.571 17.4198 136.571 22.6911C136.571 28.2695 139.721 32.2101 144.265 32.2101C148.809 32.2101 151.752 28.3718 151.752 22.8446Z" fill="black"/>
</g>
<defs>
<clipPath id="clip0_2718_11380">
<rect width="158" height="46.623" fill="white" transform="translate(0 0.171875)"/>
</clipPath>
</defs>
</svg>
