<svg width="130" height="60" viewBox="0 0 130 60" fill="none" xmlns="http://www.w3.org/2000/svg">
<g id="Layer_1" clip-path="url(#clip0_2718_11387)">
<path id="Vector" d="M127.753 59.468C126.366 43.8263 119.223 29.3358 107.638 18.6621C95.9859 7.92598 80.8421 2.01357 64.9993 2.01357C49.1565 2.01357 34.0127 7.92598 22.3605 18.6638C10.7777 29.3375 3.6345 43.8281 2.24712 59.468H0.246094C1.67794 43.3274 9.04883 28.1953 21.0016 17.1813C33.0256 6.1013 48.6514 0 64.9993 0C81.3472 0 96.973 6.1013 108.999 17.1813C120.95 28.1936 128.322 43.3274 129.754 59.468H127.753Z" fill="#231F20"/>
<path id="Vector_2" d="M127.753 59.1451C125.206 30.5676 96.4679 6.42418 64.9993 6.42418C33.5307 6.42418 4.7942 30.5676 2.24712 59.1451L0.246094 58.9678C2.88033 29.4005 32.5346 4.41992 64.9993 4.41992C97.464 4.41992 127.118 29.4005 129.754 58.966L127.753 59.1434V59.1451Z" fill="#231F20"/>
<path id="Vector_3" d="M127.753 59.0956C126.629 46.4953 118.892 34.3509 105.964 24.8972C93.9315 16.0979 78.617 10.8443 64.9993 10.8443C51.3816 10.8443 36.0671 16.0979 24.0343 24.8972C11.1068 34.3527 3.36947 46.4971 2.24712 59.0956L0.246094 58.9182C1.42003 45.738 9.44726 33.081 22.8461 23.2831C35.3966 14.1061 50.7609 8.8418 64.9993 8.8418C79.2377 8.8418 94.602 14.1061 107.152 23.2831C120.553 33.081 128.579 45.738 129.754 58.9182L127.753 59.0956Z" fill="#231F20"/>
<path id="Vector_4" d="M127.753 59.0476C125.651 35.4682 91.4911 15.2642 64.9993 15.2642C38.5075 15.2642 4.34953 35.4665 2.24712 59.0476L0.246094 58.8702C1.30086 47.038 9.65714 35.4984 23.7764 26.3763C36.4833 18.1642 51.8957 13.2617 65.0011 13.2617C78.1065 13.2617 93.517 18.1642 106.226 26.3763C120.345 35.4984 128.701 47.0397 129.756 58.8702L127.755 59.0476H127.753Z" fill="#231F20"/>
<path id="Vector_5" d="M127.753 58.9978C126.567 45.6916 112.553 35.8779 104.303 31.2131C91.9233 24.2106 76.4967 19.6859 64.9993 19.6859C41.6024 19.6859 4.18056 37.2986 2.24712 58.9996L0.246094 58.8222C2.27024 36.112 40.8767 17.6816 64.9993 17.6816C89.1219 17.6816 127.728 36.112 129.754 58.8204L127.753 58.9978Z" fill="#231F20"/>
<path id="Vector_6" d="M127.753 58.9481C126.055 39.881 85.1554 24.1058 64.9993 24.1058C44.8432 24.1058 3.94577 39.8792 2.24712 58.9481L0.246094 58.7707C2.10127 37.953 44.4928 22.1016 64.9993 22.1016C85.5058 22.1016 127.899 37.9547 129.754 58.7707L127.753 58.9481Z" fill="#231F20"/>
<path id="Vector_7" d="M127.753 58.8983C126.247 41.9933 81.9253 28.5257 64.9993 28.5257C48.0733 28.5257 3.75367 41.9933 2.24712 58.8983L0.246094 58.7209C1.87359 40.4573 47.0541 26.5215 64.9993 26.5215C82.9445 26.5215 128.125 40.4573 129.754 58.7209L127.753 58.8983Z" fill="#231F20"/>
<path id="Vector_8" d="M127.753 58.8505C126.483 44.6025 79.8087 32.9458 64.9993 32.9458C50.1899 32.9458 3.5171 44.6007 2.24712 58.8505L0.246094 58.6731C1.03761 49.8047 15.509 42.9547 27.5099 38.7706C42.0969 33.6872 57.712 30.9434 64.9993 30.9434C80.0541 30.9434 128.308 42.4492 129.754 58.6731L127.753 58.8505Z" fill="#231F20"/>
<path id="Vector_9" d="M127.753 58.8007C126.745 47.4988 79.0367 37.3658 64.9993 37.3658C50.9619 37.3658 3.25564 47.4988 2.24712 58.8007L0.246094 58.6234C1.48584 44.7088 54.2115 35.3633 64.9993 35.3633C75.7871 35.3633 128.513 44.7088 129.754 58.6234L127.753 58.8007Z" fill="#231F20"/>
<path id="Vector_10" d="M127.753 58.7529C126.976 50.0388 75.9454 41.7876 64.9993 41.7876C54.0532 41.7876 3.02263 50.0388 2.24712 58.7529L0.246094 58.5756C1.26528 47.1459 56.8493 39.7852 64.9993 39.7852C73.1493 39.7852 128.735 47.1459 129.754 58.5756L127.753 58.7529Z" fill="#231F20"/>
<path id="Vector_11" d="M127.753 58.7032C127.693 58.0221 126.039 54.402 99.3565 50.0813C83.8908 47.5751 68.5478 46.2076 64.9993 46.2076C61.4508 46.2076 46.1096 47.5751 30.6421 50.0813C3.96178 54.402 2.3076 58.0221 2.24712 58.7032L0.246094 58.5258C1.07674 49.1927 61.7301 44.2051 64.9993 44.2051C68.2685 44.2051 128.922 49.1927 129.754 58.5258L127.753 58.7032Z" fill="#231F20"/>
<path id="Vector_12" d="M127.776 58.7455C127.526 58.302 124.888 55.9448 97.576 53.114C82.9107 51.5922 67.5553 50.6273 64.9993 50.6273C62.4433 50.6273 47.0897 51.5922 32.4226 53.1122C5.11259 55.9448 2.47479 58.3003 2.224 58.7455L0.246094 58.4759C0.372381 57.0711 0.603612 54.4549 31.2576 51.2197C46.3088 49.6305 62.285 48.623 64.9993 48.623C67.7136 48.623 83.6898 49.6305 98.7411 51.2197C129.395 54.4549 129.628 57.0711 129.753 58.4759L127.751 58.6532C127.757 58.7118 127.775 58.7437 127.775 58.7437L127.776 58.7455Z" fill="#231F20"/>
<path id="Vector_13" d="M128.02 59.1287C124.769 57.0446 69.4104 55.0474 64.9993 55.0474C60.5881 55.0474 5.23176 57.0446 1.98032 59.1287C2.04079 59.0896 2.22044 58.9105 2.24712 58.6036L0.246094 58.4281C0.358151 57.1687 0.463094 55.9786 32.1914 54.3415C47.9523 53.5291 63.8396 53.0449 64.9993 53.0449C66.159 53.0449 82.0463 53.5274 97.8072 54.3415C129.536 55.9786 129.64 57.1687 129.754 58.4281L127.753 58.6054C127.78 58.9105 127.96 59.0896 128.02 59.1287Z" fill="#231F20"/>
<path id="Vector_14" d="M128.755 57.4648H1.24756V59.4691H128.755V57.4648Z" fill="#231F20"/>
</g>
<defs>
<clipPath id="clip0_2718_11387">
<rect width="129.508" height="59.4681" fill="white" transform="translate(0.246094)"/>
</clipPath>
</defs>
</svg>
